PathFileType	4	(X/Y/Z)	/Users/nbianco/Projects/AddBiomechanics/hamner/residuals/addbio/results/subject01/results/MarkerData/run300.trc
DataRate	CameraRate	NumFrames	NumMarkers	Units	OrigDataRate	OrigDataStartFrame	OrigNumFrames
100	100	10	42	m	100	135	216
Frame#	Time	C7			CLAV			LACR			LASI			LCAL			LFAradius			LFAsuperior			LFAulna			LLEL			LMEL			LMT5			LPSI			LTB1			LTB2			LTB3			LTH1			LTH2			LTH3			LTOE			LUA1			LUA2			LUA3			RACR			RASI			RCAL			RFAradius			RFAsuperior			RFAulna			RLEL			RMEL			RMT5			RPSI			RTB1			RTB2			RTB3			RTH1			RTH2			RTH3			RTOE			RUA1			RUA2			RUA3		
		X1	Y1	Z1	X2	Y2	Z2	X3	Y3	Z3	X4	Y4	Z4	X5	Y5	Z5	X6	Y6	Z6	X7	Y7	Z7	X8	Y8	Z8	X9	Y9	Z9	X10	Y10	Z10	X11	Y11	Z11	X12	Y12	Z12	X13	Y13	Z13	X14	Y14	Z14	X15	Y15	Z15	X16	Y16	Z16	X17	Y17	Z17	X18	Y18	Z18	X19	Y19	Z19	X20	Y20	Z20	X21	Y21	Z21	X22	Y22	Z22	X23	Y23	Z23	X24	Y24	Z24	X25	Y25	Z25	X26	Y26	Z26	X27	Y27	Z27	X28	Y28	Z28	X29	Y29	Z29	X30	Y30	Z30	X31	Y31	Z31	X32	Y32	Z32	X33	Y33	Z33	X34	Y34	Z34	X35	Y35	Z35	X36	Y36	Z36	X37	Y37	Z37	X38	Y38	Z38	X39	Y39	Z39	X40	Y40	Z40	X41	Y41	Z41	X42	Y42	Z42

136	1.87	0.931497	1.60776	-0.358053	1.04757	1.54215	-0.310543	1.00215	1.59083	-0.507229	1.01489	1.08679	-0.471354	0.455153	0.283037	-0.371478	1.07699	1.3199	-0.514636	0.942444	1.26201	-0.631259	1.09731	1.25375	-0.537742	0.867823	1.28864	-0.655806	0.838383	1.26584	-0.570427	0.519053	0.0820878	-0.421615	0.861241	1.16403	-0.417537	0.752901	0.474483	-0.409745	0.62185	0.429172	-0.452456	0.617566	0.304809	-0.3963	0.92714	0.964219	-0.528379	0.801813	0.847504	-0.480096	0.80243	0.704671	-0.47417	0.589228	0.0908912	-0.33327	0.914168	1.49536	-0.57707	0.947106	1.42086	-0.599129	0.878715	1.35659	-0.635301	0.977362	1.57694	-0.189082	1.00688	1.10702	-0.230744	0.97311	0.166091	-0.287747	0.89932	1.208	-0.106598	0.755322	1.30346	-0.0499939	0.850046	1.17246	-0.0745489	0.691661	1.39111	-0.0673157	0.699866	1.35896	-0.151899	1.16574	0.118335	-0.214724	0.850443	1.16306	-0.303607	1.14656	0.477431	-0.266066	1.06059	0.437657	-0.201151	1.10212	0.293987	-0.281906	0.944059	0.994323	-0.17044	0.955508	0.839344	-0.201404	1.0584	0.721807	-0.206783	1.21556	0.150712	-0.306636	0.837344	1.52959	-0.156551	0.849589	1.46706	-0.106199	0.750195	1.43236	-0.0852659
137	1.88	0.931053	1.60988	-0.357197	1.04713	1.54436	-0.309724	1.0022	1.59374	-0.505912	1.01533	1.08986	-0.471381	0.445871	0.299261	-0.377411	1.0747	1.32544	-0.514035	0.941585	1.26701	-0.631985	1.09505	1.25868	-0.535804	0.867217	1.29345	-0.657613	0.836634	1.27045	-0.572405	0.497198	0.093278	-0.423512	0.861224	1.16627	-0.417746	0.749042	0.477578	-0.409452	0.617221	0.436691	-0.454506	0.607277	0.312734	-0.398446	0.928689	0.966721	-0.52883	0.803243	0.850528	-0.480296	0.803563	0.707247	-0.473926	0.566916	0.0992446	-0.335358	0.914291	1.49937	-0.57668	0.946693	1.42526	-0.599487	0.877924	1.36184	-0.636712	0.97692	1.57941	-0.188469	1.00676	1.10931	-0.230569	0.99928	0.153014	-0.289186	0.898649	1.21323	-0.106008	0.753341	1.30765	-0.0510789	0.84912	1.17716	-0.0750379	0.68952	1.39494	-0.0689886	0.69854	1.36267	-0.153647	1.19709	0.118112	-0.223525	0.850386	1.16454	-0.303592	1.14796	0.4767	-0.267609	1.06568	0.430344	-0.202593	1.1177	0.290558	-0.284438	0.942794	0.99433	-0.170768	0.951742	0.839217	-0.201471	1.05165	0.719105	-0.206965	1.24101	0.157504	-0.315578	0.836313	1.53327	-0.157563	0.847939	1.47089	-0.106461	0.74819	1.43649	-0.0863826
138	1.89	0.930568	1.61099	-0.35609	1.04676	1.54557	-0.308854	1.002	1.5956	-0.504604	1.01549	1.09204	-0.47145	0.436046	0.315052	-0.383396	1.07242	1.3284	-0.513492	0.940117	1.27019	-0.632603	1.09226	1.26094	-0.53423	0.866062	1.29703	-0.659148	0.834112	1.2741	-0.573993	0.477615	0.10576	-0.425569	0.860781	1.16732	-0.417729	0.747241	0.478667	-0.408672	0.614737	0.443062	-0.456703	0.597629	0.320354	-0.400045	0.930987	0.967673	-0.528814	0.805999	0.851005	-0.48087	0.807503	0.707177	-0.473848	0.545279	0.109403	-0.336356	0.914058	1.50217	-0.576164	0.946003	1.42831	-0.599659	0.876984	1.36565	-0.637894	0.976702	1.58075	-0.187611	1.00639	1.1101	-0.230323	1.02182	0.142112	-0.290693	0.898828	1.21688	-0.105171	0.752212	1.31017	-0.0516508	0.849257	1.18032	-0.074919	0.688068	1.39703	-0.0702016	0.697899	1.3646	-0.154824	1.2236	0.119841	-0.232161	0.850061	1.16452	-0.303473	1.14783	0.475378	-0.269246	1.06857	0.423695	-0.204856	1.13015	0.287829	-0.286877	0.941934	0.993526	-0.171192	0.948083	0.838392	-0.201384	1.044	0.715516	-0.207206	1.26111	0.165488	-0.32404	0.835544	1.53539	-0.158297	0.846864	1.47324	-0.106451	0.746802	1.43898	-0.0871071
139	1.9	0.930062	1.61114	-0.354764	1.04648	1.5457	-0.308001	1.00154	1.59638	-0.503368	1.01535	1.09313	-0.471545	0.426047	0.330668	-0.38959	1.07014	1.3287	-0.513047	0.938012	1.27164	-0.633124	1.08902	1.26065	-0.533169	0.86435	1.29947	-0.660345	0.831054	1.27679	-0.575223	0.460938	0.119361	-0.427734	0.859976	1.16699	-0.417476	0.747233	0.478054	-0.407491	0.614185	0.448556	-0.458939	0.588858	0.327961	-0.401245	0.933881	0.966937	-0.528287	0.80985	0.849009	-0.48188	0.813878	0.704594	-0.474008	0.525192	0.121627	-0.336155	0.913385	1.50377	-0.575475	0.944971	1.4301	-0.59964	0.875816	1.36807	-0.638701	0.976781	1.58085	-0.186607	1.00579	1.10959	-0.230128	1.03968	0.13353	-0.293028	0.899847	1.21894	-0.10414	0.751982	1.31101	-0.0516999	0.850429	1.18195	-0.0741956	0.687338	1.39736	-0.070856	0.697917	1.36472	-0.155341	1.24395	0.122621	-0.239838	0.849519	1.16317	-0.303407	1.14663	0.4737	-0.271237	1.06968	0.417877	-0.207765	1.13931	0.285739	-0.289665	0.941818	0.992395	-0.171694	0.944412	0.836994	-0.201477	1.036	0.711223	-0.207579	1.27578	0.173176	-0.331349	0.835157	1.53597	-0.158334	0.846417	1.47393	-0.106086	0.746064	1.43978	-0.0873453
140	1.91	0.929559	1.61032	-0.353311	1.04625	1.54467	-0.307234	1.00084	1.59604	-0.502191	1.01492	1.09297	-0.471657	0.417074	0.346515	-0.395986	1.06777	1.32638	-0.512718	0.935231	1.2715	-0.633595	1.08537	1.25794	-0.532701	0.862053	1.30085	-0.661145	0.827754	1.27847	-0.576134	0.447051	0.133783	-0.429891	0.858838	1.16526	-0.417212	0.748852	0.476108	-0.406096	0.615413	0.453551	-0.461046	0.58146	0.335721	-0.402383	0.937082	0.96465	-0.527382	0.814532	0.844933	-0.483148	0.821982	0.700022	-0.474189	0.507431	0.135619	-0.335443	0.912244	1.50426	-0.574595	0.943499	1.43074	-0.599465	0.874219	1.36924	-0.639048	0.977157	1.57964	-0.18558	1.00497	1.10815	-0.230009	1.05207	0.127137	-0.296877	0.901685	1.21937	-0.102991	0.752722	1.31017	-0.0511756	0.852607	1.18199	-0.0729254	0.687381	1.3959	-0.0707817	0.698548	1.36305	-0.155103	1.25724	0.124878	-0.245995	0.848752	1.16088	-0.303434	1.14473	0.471688	-0.273712	1.06953	0.412792	-0.210951	1.14512	0.283905	-0.293146	0.94214	0.990847	-0.172378	0.940716	0.834895	-0.201688	1.02868	0.70637	-0.207905	1.28539	0.178703	-0.337033	0.835253	1.53507	-0.157359	0.846596	1.47286	-0.105369	0.746002	1.43884	-0.0869712
141	1.92	0.929063	1.60852	-0.351843	1.04603	1.54244	-0.306603	0.999947	1.59458	-0.501044	1.01422	1.0915	-0.471736	0.410594	0.362909	-0.402203	1.06522	1.32161	-0.512512	0.931741	1.26993	-0.634063	1.08129	1.25293	-0.532879	0.859142	1.30128	-0.661513	0.824324	1.27909	-0.576732	0.435288	0.148876	-0.432156	0.85738	1.16223	-0.417229	0.752121	0.473115	-0.40478	0.618411	0.458306	-0.462832	0.576031	0.343601	-0.403763	0.940236	0.961144	-0.526318	0.819784	0.839265	-0.484398	0.831014	0.694109	-0.474043	0.492324	0.150547	-0.335352	0.910678	1.50374	-0.573561	0.941524	1.43031	-0.59918	0.872013	1.36936	-0.638986	0.977752	1.57712	-0.184621	1.00385	1.10602	-0.230001	1.05862	0.122258	-0.302407	0.904328	1.21818	-0.101763	0.754486	1.30766	-0.050017	0.855769	1.18042	-0.0712301	0.688238	1.39264	-0.0698146	0.699747	1.35959	-0.154036	1.26339	0.125183	-0.250543	0.847684	1.1579	-0.303567	1.14225	0.469056	-0.276611	1.06839	0.408024	-0.214186	1.1475	0.281632	-0.297335	0.942229	0.988431	-0.17327	0.937305	0.831923	-0.20171	1.023	0.701147	-0.208133	1.29038	0.180714	-0.340979	0.835832	1.53269	-0.155416	0.84735	1.47002	-0.104359	0.746635	1.4361	-0.0858878
142	1.93	0.928538	1.60571	-0.350451	1.04576	1.539	-0.30613	0.99892	1.59202	-0.499956	1.01332	1.08882	-0.471765	0.40771	0.379855	-0.407525	1.06239	1.3146	-0.512467	0.927521	1.26708	-0.634536	1.07672	1.24582	-0.533724	0.855603	1.30075	-0.66145	0.820699	1.27858	-0.577033	0.42506	0.164701	-0.434963	0.855661	1.15804	-0.4176	0.757193	0.469262	-0.403924	0.623297	0.46277	-0.464154	0.573081	0.351386	-0.405467	0.943014	0.956786	-0.52529	0.825328	0.832372	-0.48544	0.840348	0.687356	-0.47349	0.479896	0.165405	-0.336847	0.908742	1.50227	-0.57243	0.939049	1.42883	-0.598808	0.869148	1.36853	-0.638663	0.978454	1.57336	-0.183759	1.00238	1.10315	-0.230129	1.05943	0.117678	-0.308914	0.907767	1.2154	-0.100438	0.757274	1.30348	-0.0481912	0.859895	1.17721	-0.0692551	0.689921	1.38754	-0.0678818	0.701483	1.35433	-0.1521	1.26319	0.122927	-0.253931	0.846249	1.15422	-0.303808	1.13918	0.465373	-0.279697	1.06614	0.403056	-0.21749	1.14647	0.278181	-0.301864	0.941534	0.984781	-0.174145	0.934561	0.828042	-0.201349	1.01923	0.695736	-0.208544	1.29094	0.179047	-0.343599	0.836774	1.52879	-0.152842	0.848602	1.46553	-0.103076	0.747969	1.4315	-0.0840549
143	1.94	0.927919	1.60187	-0.349191	1.0454	1.53439	-0.305816	0.997755	1.58836	-0.499018	1.01233	1.08518	-0.471844	0.40881	0.396977	-0.411203	1.05922	1.30554	-0.512646	0.922572	1.26305	-0.634988	1.07156	1.23681	-0.535193	0.851447	1.29922	-0.660994	0.816782	1.27692	-0.577081	0.41638	0.181317	-0.43884	0.853834	1.15282	-0.4181	0.764177	0.464713	-0.403918	0.63019	0.466659	-0.465069	0.572889	0.358773	-0.407379	0.945178	0.95185	-0.524415	0.830893	0.824459	-0.486213	0.849674	0.680017	-0.472966	0.470229	0.179365	-0.340376	0.906467	1.49982	-0.571268	0.936119	1.42624	-0.598353	0.865679	1.36676	-0.638187	0.979164	1.56848	-0.182986	1.00059	1.09936	-0.230309	1.05494	0.112182	-0.314983	0.911995	1.21102	-0.0989769	0.761033	1.2976	-0.0456957	0.864941	1.17234	-0.0670914	0.692417	1.3806	-0.0650202	0.703752	1.34729	-0.149288	1.25792	0.118136	-0.256894	0.844491	1.14963	-0.304106	1.13543	0.460296	-0.282681	1.06249	0.397538	-0.220853	1.14219	0.273087	-0.306113	0.939855	0.979905	-0.174617	0.932488	0.823304	-0.200832	1.01694	0.690234	-0.209559	1.28705	0.174507	-0.345752	0.837903	1.52337	-0.149948	0.850288	1.45958	-0.101483	0.750005	1.42506	-0.0814859
144	1.95	0.927143	1.59699	-0.348093	1.04491	1.52872	-0.305649	0.996375	1.58356	-0.498303	1.01129	1.08077	-0.472095	0.413559	0.413622	-0.412788	1.0556	1.29462	-0.513102	0.916907	1.25789	-0.635397	1.06574	1.2261	-0.537192	0.846693	1.29662	-0.660225	0.8125	1.27416	-0.576902	0.40995	0.198515	-0.444105	0.852063	1.14673	-0.41841	0.772967	0.459631	-0.405036	0.639052	0.469765	-0.465918	0.575437	0.365509	-0.409403	0.946643	0.946475	-0.523763	0.83629	0.815681	-0.486701	0.858994	0.672186	-0.473184	0.463692	0.191945	-0.345934	0.90385	1.49632	-0.570149	0.932781	1.42246	-0.597827	0.861689	1.36391	-0.637543	0.979816	1.56258	-0.182279	0.998606	1.09448	-0.230373	1.04577	0.105446	-0.319324	0.916994	1.20506	-0.097354	0.765687	1.28999	-0.0425453	0.870844	1.16584	-0.0647495	0.69572	1.37184	-0.0613068	0.706553	1.33855	-0.145607	1.24855	0.110655	-0.259997	0.842588	1.14394	-0.30435	1.13077	0.453625	-0.285308	1.05719	0.391309	-0.223915	1.13497	0.266236	-0.309472	0.937304	0.974074	-0.174455	0.930617	0.817664	-0.200762	1.01534	0.68457	-0.211328	1.27885	0.167671	-0.348271	0.839078	1.51653	-0.146805	0.852382	1.45226	-0.0995409	0.752742	1.41681	-0.078238
145	1.96	0.926184	1.59112	-0.347159	1.04429	1.52211	-0.305602	0.994669	1.57761	-0.497796	1.01007	1.0756	-0.472417	0.421121	0.42906	-0.412272	1.05143	1.28197	-0.513851	0.910547	1.25159	-0.635777	1.05918	1.21387	-0.539642	0.841366	1.29288	-0.659249	0.807755	1.27034	-0.576457	0.406785	0.215742	-0.450697	0.850388	1.13994	-0.418361	0.783237	0.454127	-0.40736	0.649628	0.472197	-0.467139	0.58047	0.371466	-0.411639	0.947501	0.94068	-0.52341	0.841465	0.806256	-0.48692	0.868487	0.663923	-0.474591	0.460872	0.203004	-0.353283	0.900863	1.49166	-0.569112	0.929055	1.41744	-0.59725	0.857234	1.35986	-0.636653	0.980375	1.55574	-0.181632	0.996649	1.08851	-0.23023	1.03257	0.0985299	-0.321757	0.922745	1.19757	-0.0955645	0.771169	1.28062	-0.0387808	0.87756	1.15776	-0.0622175	0.699846	1.36138	-0.0567887	0.709885	1.32821	-0.141071	1.23532	0.0998944	-0.263246	0.840756	1.13705	-0.304437	1.12488	0.445181	-0.287335	1.05015	0.384162	-0.226129	1.12517	0.257666	-0.311682	0.934242	0.967439	-0.173854	0.928357	0.810952	-0.201668	1.01369	0.678427	-0.213473	1.26677	0.157724	-0.351335	0.84026	1.5084	-0.143319	0.854892	1.4436	-0.0972612	0.75617	1.40685	-0.0743965
